<svg id="e0b96b33-b258-4b9c-b6c7-a3fb6d5262b6" data-name="Layer 1" xmlns="http://www.w3.org/2000/svg" viewBox="0 0 285.21 62.06"><defs><style>.a365b6ef-3b09-42a0-9465-ff561b74b56c{font-size:30.92px;font-family:Montserrat-Black, Montserrat;font-weight:800;}.a19e3743-d65d-4e4a-a914-8226a976d4a4,.a365b6ef-3b09-42a0-9465-ff561b74b56c,.e348a665-e6f7-49f5-8cc7-a5b4c546f095{fill:#1a535c;}.a77f5991-fd6d-4982-ad07-4a56da6c0cbe{letter-spacing:-0.01em;}.ae39ef50-7547-4b2b-809d-a15f05fcc7f6{letter-spacing:0em;}.a845bab2-d196-46ca-b30e-302b13034b83,.ee7d3e32-5f24-4fad-94ba-1962b08851d3{font-family:Montserrat-Medium, Montserrat;font-weight:500;}.a845bab2-d196-46ca-b30e-302b13034b83{letter-spacing:-0.02em;}.e348a665-e6f7-49f5-8cc7-a5b4c546f095{font-size:12.04px;font-family:NeulisAlt-Bold, Neulis Alt;font-weight:700;letter-spacing:0.4em;}.f5e27a57-d181-4c01-840d-c66ec999fe21{letter-spacing:0.36em;}.abd12599-6056-4e83-b02c-984d70d6e9c8{letter-spacing:0.4em;}.b0b96aa1-d8f0-488e-aa89-4e306a4d45ee{letter-spacing:0.39em;}.b26e07bf-3d60-4f08-928d-c17e07ef6976{letter-spacing:0.36em;}.bc82e71b-fe6a-4a34-b024-ec2db0481abc{letter-spacing:0.37em;}.b0925db1-57ff-4dc9-adc6-0334f31bf15b{letter-spacing:0.4em;}.a1435e4c-7093-4f46-8bbe-f97a110d653f{letter-spacing:0.4em;}</style></defs><text class="a365b6ef-3b09-42a0-9465-ff561b74b56c" transform="translate(63.95 34.68) scale(0.92 1)">IM<tspan class="a77f5991-fd6d-4982-ad07-4a56da6c0cbe" x="40.31" y="0">A</tspan><tspan class="ae39ef50-7547-4b2b-809d-a15f05fcc7f6" x="64.92" y="0">GINE</tspan><tspan class="a845bab2-d196-46ca-b30e-302b13034b83" x="145.18" y="0">C</tspan><tspan class="ee7d3e32-5f24-4fad-94ba-1962b08851d3" x="167.07" y="0">ODE</tspan></text><text class="e348a665-e6f7-49f5-8cc7-a5b4c546f095" transform="translate(85.03 51.8)">IM<tspan class="f5e27a57-d181-4c01-840d-c66ec999fe21" x="23.95" y="0">A</tspan><tspan class="abd12599-6056-4e83-b02c-984d70d6e9c8" x="36.74" y="0">GIN</tspan><tspan class="b0b96aa1-d8f0-488e-aa89-4e306a4d45ee" x="72.98" y="0">E</tspan><tspan class="b26e07bf-3d60-4f08-928d-c17e07ef6976" x="84.48" y="0">-</tspan><tspan class="bc82e71b-fe6a-4a34-b024-ec2db0481abc" x="93.77" y="0">A</tspan><tspan x="106.57" y="0">CHI</tspan><tspan class="b0925db1-57ff-4dc9-adc6-0334f31bf15b" x="142.49" y="0">E</tspan><tspan class="a1435e4c-7093-4f46-8bbe-f97a110d653f" x="154.14" y="0">VE</tspan></text><path class="a19e3743-d65d-4e4a-a914-8226a976d4a4" d="M41.53,50.18V82L66.42,68.4V36.6Zm8.91,8.5-4.72,5.81,4.66.69,0,3.34-6.66-1.2,0-3.47,6.74-8.48Zm2.22,14-2,1.06,4.87-27.7,2-1.07ZM64.35,56.11l-6.74,8.48,0-3.35,4.72-5.78-4.66-.71,0-3.32,6.66,1.2Z" transform="translate(-12.39 -19.92)"/><polygon class="a19e3743-d65d-4e4a-a914-8226a976d4a4" points="0 16.68 0 48.48 25.16 62.06 25.16 30.26 0 16.68"/><polygon class="a19e3743-d65d-4e4a-a914-8226a976d4a4" points="27 0 1.46 13.8 27 27.6 52.37 13.8 27 0"/></svg>